<svg xmlns="http://www.w3.org/2000/svg" viewBox="0 0 512 512" style="enable-background:new 0 0 512 512" xml:space="preserve">
  <circle style="fill:#7ad768" cx="256" cy="256" r="256"/>
  <path style="fill:#51a83f" d="m397.321 207.082-156.569-19.608L115.5 208.593l60.626 49.131-43.494 11.035L179 312.889l-33.63 15.074L321.055 503.65c91.133-23.874 162.438-96.715 184.117-188.716L397.321 207.082z"/>
  <path style="fill:#fff" d="M340.697 342.666a13.871 13.871 0 0 1-18.982 4.979c-36.462-21.309-78.586-24.735-107.508-23.854-32.039.974-55.534 7.299-55.767 7.365-7.385 2.017-15.017-2.329-17.044-9.712-2.026-7.383 2.307-15.012 9.688-17.044 1.058-.291 26.343-7.159 61.5-8.318 20.709-.683 40.646.76 59.249 4.289 23.562 4.47 45.054 12.316 63.883 23.319 6.619 3.862 8.848 12.36 4.981 18.976zm25.795-53.576c-3.055 5.23-8.556 8.145-14.205 8.145-2.817 0-5.67-.724-8.278-2.248-43.189-25.241-93.087-29.296-127.347-28.255-37.952 1.155-65.783 8.647-66.058 8.723-8.747 2.386-17.789-2.758-20.189-11.505-2.4-8.747 2.732-17.78 11.476-20.19 1.255-.345 31.203-8.48 72.849-9.854 24.533-.809 48.147.9 70.182 5.08 27.91 5.296 53.369 14.588 75.671 27.622 7.84 4.58 10.481 14.645 5.899 22.482zm15.858-48.714c-3.455 0-6.954-.888-10.154-2.758-102.681-60.007-235.877-24.333-237.209-23.966-10.735 2.958-21.833-3.346-24.79-14.081-2.958-10.735 3.346-21.833 14.081-24.79 1.538-.424 38.272-10.402 89.357-12.086 30.092-.991 59.058 1.105 86.087 6.232 34.235 6.494 65.464 17.892 92.819 33.88 9.612 5.618 12.852 17.965 7.233 27.577-3.748 6.417-10.494 9.992-17.424 9.992z"/>
  <path style="fill:#d1d1d1" d="M321.717 347.645a13.814 13.814 0 0 0 6.989 1.898c4.77 0 9.413-2.462 11.993-6.877 3.867-6.615 1.638-15.113-4.979-18.98-18.828-11.004-40.322-18.849-63.883-23.319-9.306-1.765-18.944-3.008-28.846-3.725l-2.236 27.691c25.18 1.828 54.554 7.877 80.962 23.312zM392.54 202.809c-27.355-15.988-58.585-27.386-92.819-33.88-14.779-2.803-30.155-4.667-45.961-5.649l-3.246 40.181c39.003 2.327 82.556 11.293 121.682 34.159a20.064 20.064 0 0 0 10.154 2.758c6.93 0 13.676-3.577 17.423-9.992 5.619-9.614 2.381-21.959-7.233-27.577zM344.011 294.988a16.359 16.359 0 0 0 8.278 2.248c5.649 0 11.15-2.915 14.205-8.145 4.58-7.837 1.941-17.903-5.897-22.481-22.302-13.033-47.761-22.326-75.671-27.62-11.874-2.253-24.221-3.763-36.909-4.572l-2.648 32.773c30.421 1.919 66.399 8.953 98.642 27.797z"/>
</svg>
